<?xml version="1.0" encoding="UTF-8" standalone="no"?>
<svg
   viewBox="0 0 1847 457"
   fill="none"
   version="1.1"
   id="svg12"
   sodipodi:docname="wordmark.svg"
   inkscape:version="1.2.1 (9c6d41e410, 2022-07-14)"
   xmlns:inkscape="http://www.inkscape.org/namespaces/inkscape"
   xmlns:sodipodi="http://sodipodi.sourceforge.net/DTD/sodipodi-0.dtd"
   xmlns:xlink="http://www.w3.org/1999/xlink"
   xmlns="http://www.w3.org/2000/svg"
   xmlns:svg="http://www.w3.org/2000/svg">
  <sodipodi:namedview
     id="namedview28"
     pagecolor="#ffffff"
     bordercolor="#000000"
     borderopacity="0.25"
     inkscape:showpageshadow="2"
     inkscape:pageopacity="0.0"
     inkscape:pagecheckerboard="0"
     inkscape:deskcolor="#d1d1d1"
     showgrid="false"
     inkscape:zoom="0.35462913"
     inkscape:cx="1236.5031"
     inkscape:cy="74.725954"
     inkscape:window-width="1920"
     inkscape:window-height="991"
     inkscape:window-x="-9"
     inkscape:window-y="-9"
     inkscape:window-maximized="1"
     inkscape:current-layer="svg12" />
  <defs
     id="defs16">
    <linearGradient
       inkscape:collect="always"
       id="linearGradient998">
      <stop
         style="stop-color:#fac72e;stop-opacity:1;"
         offset="0"
         id="stop994" />
      <stop
         style="stop-color:#b25016;stop-opacity:1;"
         offset="1"
         id="stop996" />
    </linearGradient>
    <linearGradient
       inkscape:collect="always"
       xlink:href="#linearGradient998"
       id="linearGradient1000"
       x1="18.451844"
       y1="226.01951"
       x2="1835.6143"
       y2="226.01951"
       gradientUnits="userSpaceOnUse" />
    <linearGradient
       inkscape:collect="always"
       xlink:href="#linearGradient998"
       id="linearGradient11963"
       gradientUnits="userSpaceOnUse"
       x1="18.451844"
       y1="226.01951"
       x2="1835.6143"
       y2="226.01951"
       gradientTransform="translate(-143.11552,-601.0592)" />
  </defs>
  <path
     d="m 132.94317,357.14302 q -56.472074,0 -85.4817,-32.49078 -29.009626,-32.49078 -29.009626,-83.93452 0,-43.70784 19.33975,-81.22695 11.217056,-22.04732 28.236036,-38.6795 17.018981,-16.63219 46.02861,-27.462449 29.00962,-10.830261 65.75515,-10.830261 12.37744,0 22.04732,2.32077 9.66987,2.32077 9.66987,3.09436 0,18.56616 -2.70756,42.54745 -2.32077,23.5945 -2.70757,23.98129 -1.93397,1.93398 -16.24539,6.18872 -13.92462,4.25475 -20.88693,4.25475 v -2.32077 q 0,-17.40578 -5.02834,-24.36809 -5.02833,-6.96231 -17.40577,-6.96231 -27.46245,0 -51.056944,29.00963 -23.594495,28.62283 -23.594495,78.90618 0,26.68886 13.15103,47.96258 6.96231,11.21706 20.113339,18.17937 13.53783,6.96231 31.71719,6.96231 36.35873,0 70.78349,-33.65117 1.54718,0 6.18872,5.02834 5.02834,4.64154 9.66988,12.76423 9.66987,15.4718 9.66987,18.95296 0,3.48115 -11.99064,13.15103 -11.99065,9.28308 -36.35874,18.95295 -24.36808,9.66988 -49.89655,9.66988 z"
     id="path12693"
     style="font-size:386.795px;font-family:'Bubblegum Sans';-inkscape-font-specification:'Bubblegum Sans';text-align:center;text-anchor:middle;fill:url(#linearGradient1000);stroke:#255482;stroke-width:0;stroke-miterlimit:0.1" />
  <path
     d="m 256.33092,290.22748 1.54718,-140.01979 q 0,-30.55681 -0.77359,-41.38707 -0.77359,-10.830259 -0.77359,-11.603849 0,-3.86795 12.76423,-8.896286 13.15103,-5.028335 23.2077,-5.028335 10.05667,0 10.05667,1.54718 -1.93397,14.311416 -1.93397,100.5667 l -0.77359,94.76478 q 0,26.68886 0.77359,32.87758 1.93397,17.01898 11.21705,30.9436 0,3.86795 -15.85859,12.37744 -15.8586,8.50949 -27.07565,8.50949 -3.09436,0 -6.96231,-11.60385 -3.86795,-11.60385 -4.64154,-20.11334 -0.77359,-8.50949 -0.77359,-42.93425 z"
     id="path12695"
     style="font-size:386.795px;font-family:'Bubblegum Sans';-inkscape-font-specification:'Bubblegum Sans';text-align:center;text-anchor:middle;fill:url(#linearGradient1000);stroke:#255482;stroke-width:0;stroke-miterlimit:0.1" />
  <path
     d="m 363.0863,114.23575 q 10.83026,0 17.40578,6.96231 6.57551,6.96231 6.57551,18.17937 0,11.21705 -8.89628,19.33975 -8.50949,7.7359 -19.33975,7.7359 -10.44347,0 -17.01898,-6.57552 -6.18872,-6.96231 -6.18872,-18.17936 0,-11.21706 8.50949,-19.33975 8.50949,-8.1227 18.95295,-8.1227 z m 19.72655,96.31196 -0.77359,62.66079 q 0,30.17001 1.54718,44.48143 1.93397,13.92462 10.05667,26.30206 0,3.86795 -15.8586,12.37744 -15.85859,8.50949 -27.07565,8.50949 -3.48115,0 -6.96231,-11.60385 -3.48115,-11.60385 -4.64154,-22.04732 -0.77359,-10.44346 -0.77359,-70.39669 0,-59.95323 2.70757,-65.36836 8.89628,-6.96231 31.33039,-6.96231 8.89629,0 10.83026,2.32077 z"
     id="path12697"
     style="font-size:386.795px;font-family:'Bubblegum Sans';-inkscape-font-specification:'Bubblegum Sans';text-align:center;text-anchor:middle;fill:url(#linearGradient1000);stroke:#255482;stroke-width:0;stroke-miterlimit:0.1" />
  <path
     d="m 423.42606,297.18979 -1.16039,-90.89683 q 0,-24.75488 1.93398,-26.68885 4.64154,-4.25475 14.31141,-7.7359 9.66988,-3.86795 18.56616,-3.86795 8.89629,0 8.89629,1.54718 -1.54718,17.01898 -1.54718,25.91526 0,8.89629 0.77359,8.89629 0.77359,0 2.32077,-1.54718 1.54718,-1.93398 5.41513,-5.41513 4.25474,-3.86795 15.085,-10.05667 11.21706,-6.57552 20.50014,-6.57552 25.14167,0 37.90591,22.43411 22.04732,-30.9436 48.73617,-30.9436 23.98129,0 34.42476,20.50014 10.83026,22.8209 12.76423,45.64181 2.32077,33.26437 2.32077,68.84951 l -1.54718,45.25502 q 0,2.70756 -12.76423,5.02833 -12.76424,2.70757 -20.50014,2.70757 l -12.37744,-1.93398 q 4.25475,-38.2927 4.25475,-61.8872 0,-23.59449 -0.77359,-33.65116 -0.3868,-10.44347 -2.70757,-20.50014 -2.32077,-10.44346 -7.3491,-14.69821 -4.64154,-4.64154 -11.99065,-4.64154 -7.3491,0 -13.15103,4.25475 -5.80192,3.86795 -8.50949,7.7359 -2.32077,3.86795 -2.32077,5.02833 1.16039,12.37744 1.16039,57.24566 l -1.54718,30.55681 q 0,3.09436 -12.37745,5.41513 -12.37744,2.32077 -20.11334,2.32077 l -12.37744,-1.93398 q 3.48116,-31.33039 3.48116,-58.40604 0,-27.46245 -3.09436,-38.29271 -2.70757,-11.21705 -15.08501,-11.21705 -12.37744,0 -20.88693,12.37744 -8.50949,12.37744 -8.50949,18.95295 v 8.1227 l 0.3868,41.00027 q 0,37.90591 -1.54718,39.83988 -9.66988,9.28308 -40.61348,9.28308 -3.09436,0 -3.09436,-1.16038 2.70757,-16.63219 2.70757,-56.85887 z"
     id="path12699"
     style="font-size:386.795px;font-family:'Bubblegum Sans';-inkscape-font-specification:'Bubblegum Sans';text-align:center;text-anchor:middle;fill:url(#linearGradient1000);stroke:#255482;stroke-width:0;stroke-miterlimit:0.1" />
  <path
     d="m 817.57042,258.89709 q 0,48.34937 1.16039,56.47207 3.09436,21.27372 13.15103,30.5568 0,4.25475 -15.4718,12.76424 -15.08501,8.50949 -27.46245,8.50949 -3.48115,0 -7.3491,-10.44347 -3.86795,-10.05667 -4.64154,-15.085 -0.3868,-5.02834 -0.77359,-5.02834 l -1.16039,0.77359 q -20.50013,16.24539 -47.96258,16.24539 -27.46245,0 -42.54745,-13.15103 -14.69821,-13.53782 -14.69821,-35.19834 0,-21.66052 9.28308,-36.35873 9.66987,-15.08501 22.43411,-22.82091 12.76424,-7.7359 28.23604,-12.37744 23.59449,-7.7359 37.13232,-7.7359 l 0.77359,-0.38679 q 0,-18.95296 -47.96258,-18.95296 -18.95296,0 -28.23604,1.54718 h -0.3868 q 0,-7.7359 4.64154,-19.33975 5.02834,-11.60385 8.1227,-15.08501 3.48115,-3.48115 27.84924,-3.48115 44.09463,0 64.98156,17.01898 20.88693,16.63218 20.88693,51.83053 z m -42.93424,24.75488 v -14.69821 q 0,-8.50949 -0.3868,-8.50949 -25.91526,0 -44.86822,13.53782 -11.99064,8.50949 -11.99064,21.27373 0,8.12269 5.80192,13.53782 5.80193,5.41513 17.40578,5.41513 11.99064,0 22.8209,-6.96231 11.21706,-6.96231 11.21706,-23.59449 z"
     id="path12701"
     style="font-size:386.795px;font-family:'Bubblegum Sans';-inkscape-font-specification:'Bubblegum Sans';text-align:center;text-anchor:middle;fill:url(#linearGradient1000);stroke:#255482;stroke-width:0;stroke-miterlimit:0.1" />
  <path
     d="m 902.27829,91.80164 q -0.77359,8.89629 -1.93398,48.73617 29.00963,0 29.00963,1.16039 0,13.15103 -3.86795,23.59449 -3.86795,10.05667 -7.34911,10.05667 h -18.17936 q -0.77359,57.24567 -0.77359,93.2176 0,35.58514 1.16038,47.57579 2.32077,20.11334 15.8586,32.87757 0,4.25475 -15.08501,12.37744 -14.69821,8.1227 -27.84924,8.1227 -1.16039,0 -4.64154,-3.86795 -3.09436,-3.86795 -6.96231,-12.76424 -3.48116,-8.89628 -4.64154,-17.40577 -0.77359,-8.50949 -0.77359,-60.72682 0,-52.21732 1.16038,-98.63273 l -21.66052,0.3868 q -1.93397,-1.93398 -1.93397,-16.63219 0,-15.085 3.48115,-18.17936 8.50949,-0.3868 20.50014,-0.77359 0,-22.43411 -1.16039,-29.00963 -1.16038,-6.57551 -1.16038,-7.7359 0,-3.86795 13.15103,-8.896284 13.53783,-5.028336 23.5945,-5.028336 10.05667,0 10.05667,1.54718 z"
     id="path12703"
     style="font-size:386.795px;font-family:'Bubblegum Sans';-inkscape-font-specification:'Bubblegum Sans';text-align:center;text-anchor:middle;fill:url(#linearGradient1000);stroke:#255482;stroke-width:0;stroke-miterlimit:0.1" />
  <path
     d="m 1032.2416,222.15156 q 0,-11.21706 -11.9906,-11.21706 -15.8586,0 -27.84929,16.2454 -11.99064,16.24539 -11.99064,39.06629 0,5.41513 1.54718,5.41513 13.92462,-0.38679 32.10395,-15.85859 18.1794,-15.8586 18.1794,-33.65117 z m 33.6512,123.00081 q -13.1511,8.89629 -51.4438,8.89629 -38.29268,0 -58.79281,-22.82091 -20.50014,-22.8209 -20.50014,-60.72681 0,-38.29271 24.36809,-66.14195 24.75488,-28.23604 69.23626,-28.23604 18.1794,0 33.2644,9.66988 15.4718,9.66987 15.4718,34.03796 0,23.98129 -21.2737,47.57579 -20.8869,23.59449 -57.24567,35.97193 0,4.64154 9.28307,7.7359 9.6699,2.70757 18.953,2.70757 29.3964,0 46.4154,-10.44347 0.3868,-0.38679 1.1604,-0.38679 0.7735,0 0.7735,7.3491 0,22.43411 -9.6698,34.81155 z"
     id="path12705"
     style="font-size:386.795px;font-family:'Bubblegum Sans';-inkscape-font-specification:'Bubblegum Sans';text-align:center;text-anchor:middle;fill:url(#linearGradient1000);stroke:#255482;stroke-width:0;stroke-miterlimit:0.1" />
  <path
     d="m 1280.5643,179.21731 -0.7736,-57.24566 q 0,-23.981289 1.1604,-25.141674 4.6416,-4.641541 15.085,-8.896286 10.8303,-4.64154 20.5002,-4.64154 9.6699,0 9.6699,1.54718 -3.0944,64.20797 -3.0944,136.53864 0,72.33067 2.3208,86.25529 2.7075,20.88693 12.7642,30.9436 0,3.86795 -16.2454,11.99064 -15.8586,8.50949 -27.0756,8.50949 -1.1604,0 -3.4812,-3.09436 -7.3491,-9.66987 -8.8963,-26.30206 0,-1.16038 -0.7736,-1.16038 l -1.1604,0.77359 q -16.2454,23.2077 -48.3493,23.2077 -25.9153,0 -41.0003,-20.50014 -15.085,-20.50013 -15.085,-46.0286 0,-43.70784 27.0756,-74.26465 27.0757,-30.9436 77.359,-32.49078 z m 0.7736,40.61348 q 0,-0.77359 -4.2547,-0.77359 h -1.5472 q -24.7549,0 -39.0663,15.8586 -13.9246,15.85859 -13.9246,40.22668 0,14.31141 6.5755,23.59449 6.9623,8.89629 20.5001,8.89629 13.9247,0 22.0474,-11.99065 8.5094,-11.99064 8.5094,-18.95295 0,-42.93425 1.1604,-56.85887 z"
     id="path12707"
     style="font-size:386.795px;font-family:'Bubblegum Sans';-inkscape-font-specification:'Bubblegum Sans';text-align:center;text-anchor:middle;fill:url(#linearGradient1000);stroke:#255482;stroke-width:0;stroke-miterlimit:0.1" />
  <path
     d="m 1509.1599,258.89709 q 0,48.34937 1.1604,56.47207 3.0943,21.27372 13.151,30.5568 0,4.25475 -15.4718,12.76424 -15.085,8.50949 -27.4624,8.50949 -3.4812,0 -7.3491,-10.44347 -3.868,-10.05667 -4.6416,-15.085 -0.3868,-5.02834 -0.7736,-5.02834 l -1.1604,0.77359 q -20.5001,16.24539 -47.9625,16.24539 -27.4625,0 -42.5475,-13.15103 -14.6982,-13.53782 -14.6982,-35.19834 0,-21.66052 9.2831,-36.35873 9.6699,-15.08501 22.4341,-22.82091 12.7642,-7.7359 28.236,-12.37744 23.5945,-7.7359 37.1324,-7.7359 l 0.7735,-0.38679 q 0,-18.95296 -47.9625,-18.95296 -18.953,0 -28.2361,1.54718 h -0.3868 q 0,-7.7359 4.6416,-19.33975 5.0283,-11.60385 8.1227,-15.08501 3.4811,-3.48115 27.8492,-3.48115 44.0946,0 64.9816,17.01898 20.8869,16.63218 20.8869,51.83053 z m -42.9342,24.75488 v -14.69821 q 0,-8.50949 -0.3868,-8.50949 -25.9153,0 -44.8683,13.53782 -11.9906,8.50949 -11.9906,21.27373 0,8.12269 5.8019,13.53782 5.8019,5.41513 17.4058,5.41513 11.9906,0 22.8209,-6.96231 11.2171,-6.96231 11.2171,-23.59449 z"
     id="path12709"
     style="font-size:386.795px;font-family:'Bubblegum Sans';-inkscape-font-specification:'Bubblegum Sans';text-align:center;text-anchor:middle;fill:url(#linearGradient1000);stroke:#255482;stroke-width:0;stroke-miterlimit:0.1" />
  <path
     d="m 1645.3117,179.21731 -0.7736,-57.24566 q 0,-23.981289 1.1603,-25.141674 4.6416,-4.641541 15.0851,-8.896286 10.8302,-4.64154 20.5001,-4.64154 9.6699,0 9.6699,1.54718 -3.0944,64.20797 -3.0944,136.53864 0,72.33067 2.3208,86.25529 2.7075,20.88693 12.7642,30.9436 0,3.86795 -16.2454,11.99064 -15.8586,8.50949 -27.0756,8.50949 -1.1604,0 -3.4812,-3.09436 -7.3491,-9.66987 -8.8963,-26.30206 0,-1.16038 -0.7736,-1.16038 l -1.1603,0.77359 q -16.2454,23.2077 -48.3494,23.2077 -25.9153,0 -41.0003,-20.50014 -15.085,-20.50013 -15.085,-46.0286 0,-43.70784 27.0757,-74.26465 27.0756,-30.9436 77.359,-32.49078 z m 0.7735,40.61348 q 0,-0.77359 -4.2547,-0.77359 h -1.5472 q -24.7549,0 -39.0663,15.8586 -13.9246,15.85859 -13.9246,40.22668 0,14.31141 6.5755,23.59449 6.9623,8.89629 20.5002,8.89629 13.9246,0 22.0473,-11.99065 8.5095,-11.99064 8.5095,-18.95295 0,-42.93425 1.1603,-56.85887 z"
     id="path12711"
     style="font-size:386.795px;font-family:'Bubblegum Sans';-inkscape-font-specification:'Bubblegum Sans';text-align:center;text-anchor:middle;fill:url(#linearGradient1000);stroke:#255482;stroke-width:0;stroke-miterlimit:0.1" />
  <path
     d="m 1835.6143,300.67095 q 0,20.88693 -19.7265,37.51911 -19.3398,16.24539 -42.1607,23.2077 -22.4341,7.34911 -39.4531,7.34911 -1.934,0 -5.4151,-4.64154 -9.6699,-12.76424 -9.6699,-29.78322 v -2.70756 q 30.17,0 46.0286,-10.44347 15.8586,-10.44346 15.8586,-21.66052 0,-7.3491 -9.6699,-15.4718 -9.6698,-8.12269 -21.2737,-14.31141 -11.6038,-6.18872 -21.2737,-16.24539 -9.6699,-10.44347 -9.6699,-21.66052 0,-23.5945 29.3964,-43.32105 29.3965,-19.72654 62.6608,-19.72654 3.868,0 10.0567,10.83026 6.1887,10.44346 6.5755,21.66052 -7.7359,0 -23.2077,4.64154 -30.5568,9.66987 -30.5568,23.98129 0,10.05667 30.17,27.46245 11.6039,6.57551 21.2737,18.17936 9.6699,11.60385 10.0567,25.14168 z"
     id="path12713"
     style="font-size:386.795px;font-family:'Bubblegum Sans';-inkscape-font-specification:'Bubblegum Sans';text-align:center;text-anchor:middle;fill:url(#linearGradient1000);stroke:#255482;stroke-width:0;stroke-miterlimit:0.1" />
  <text
     xml:space="preserve"
     style="font-style:normal;font-variant:normal;font-weight:normal;font-stretch:normal;font-size:386.795px;font-family:'Bubblegum Sans';-inkscape-font-specification:'Bubblegum Sans';text-align:center;text-anchor:middle;fill:url(#linearGradient11963);fill-opacity:1;stroke:#255482;stroke-width:0;stroke-miterlimit:0.1"
     x="781.9837"
     y="-255.90683"
     id="text365-7"><tspan
       sodipodi:role="line"
       id="tspan363-2"
       x="781.9837"
       y="-255.90683"
       style="fill:url(#linearGradient11963);fill-opacity:1;stroke-width:0">Climate dads</tspan></text>
</svg>
